<svg xmlns="http://www.w3.org/2000/svg" viewBox="64 64 896 896" focusable="false">
  <path d="M512 96c17.7 0 32 14.3 32 32v72h128c70.7 0 128 57.3 128 128v336c0 70.7-57.3 128-128 128H352c-70.7 0-128-57.3-128-128V328c0-70.7 57.3-128 128-128h128v-72c0-17.7 14.3-32 32-32zm160 176H352c-30.9 0-56 25.1-56 56v336c0 30.9 25.1 56 56 56h320c30.9 0 56-25.1 56-56V328c0-30.9-25.1-56-56-56z" />
  <path d="M384 424a56 56 0 11112 0 56 56 0 01-112 0zm200 0a56 56 0 11112 0 56 56 0 01-112 0zM384 584c0-17.7 14.3-32 32-32h192c17.7 0 32 14.3 32 32s-14.3 32-32 32H416c-17.7 0-32-14.3-32-32zM168 408c17.7 0 32 14.3 32 32v112c0 17.7-14.3 32-32 32s-32-14.3-32-32V440c0-17.7 14.3-32 32-32zm688 0c17.7 0 32 14.3 32 32v112c0 17.7-14.3 32-32 32s-32-14.3-32-32V440c0-17.7 14.3-32 32-32z" />
</svg>
